<?xml version="1.0" encoding="UTF-8" standalone="no"?>
<svg
   viewBox="0 0 512.00096 512.00096"
   version="1.1"
   id="svg8"
   sodipodi:docname="instagram.svg"
   inkscape:version="1.1.1 (3bf5ae0d25, 2021-09-20)"
   xmlns:inkscape="http://www.inkscape.org/namespaces/inkscape"
   xmlns:sodipodi="http://sodipodi.sourceforge.net/DTD/sodipodi-0.dtd"
   xmlns="http://www.w3.org/2000/svg"
   xmlns:svg="http://www.w3.org/2000/svg">
  <defs
     id="defs12" />
  <sodipodi:namedview
     id="namedview10"
     pagecolor="#505050"
     bordercolor="#ffffff"
     borderopacity="1"
     inkscape:pageshadow="0"
     inkscape:pageopacity="0"
     inkscape:pagecheckerboard="1"
     showgrid="false"
     inkscape:zoom="1.4042942"
     inkscape:cx="256.00049"
     inkscape:cy="256.00049"
     inkscape:window-width="1920"
     inkscape:window-height="1133"
     inkscape:window-x="2391"
     inkscape:window-y="29"
     inkscape:window-maximized="1"
     inkscape:current-layer="svg8" />
  <path
     style="fill: #fff;"
     d="m373.40625 0h-234.8125c-76.421875 0-138.59375 62.171875-138.59375 138.59375v234.816406c0 76.417969 62.171875 138.589844 138.59375 138.589844h234.816406c76.417969 0 138.589844-62.171875 138.589844-138.589844v-234.816406c0-76.421875-62.171875-138.59375-138.59375-138.59375zm-117.40625 395.996094c-77.195312 0-139.996094-62.800782-139.996094-139.996094s62.800782-139.996094 139.996094-139.996094 139.996094 62.800782 139.996094 139.996094-62.800782 139.996094-139.996094 139.996094zm143.34375-246.976563c-22.8125 0-41.367188-18.554687-41.367188-41.367187s18.554688-41.371094 41.367188-41.371094 41.371094 18.558594 41.371094 41.371094-18.558594 41.367187-41.371094 41.367187zm0 0"
     id="path2" />
  <path
     style="fill: #fff;"
     d="m256 146.019531c-60.640625 0-109.980469 49.335938-109.980469 109.980469 0 60.640625 49.339844 109.980469 109.980469 109.980469 60.644531 0 109.980469-49.339844 109.980469-109.980469 0-60.644531-49.335938-109.980469-109.980469-109.980469zm0 0"
     id="path4" />
</svg>
